solid OpenSCAD_Model
  facet normal 0 0 -1
    outer loop
      vertex -0.0005 -1.7 0
      vertex 2.0005 -1.6986097228532484 0
      vertex 2.0005 -1.7 0
    endloop
  endfacet
  facet normal 0 -1 0
    outer loop
      vertex -0.0005 -1.7 0
      vertex 2.0005 -1.7 0
      vertex 2.0005 -1.7 0.9
    endloop
  endfacet
  facet normal 0 -1 0
    outer loop
      vertex -0.0005 -1.7 0
      vertex 2.0005 -1.7 0.9
      vertex -0.0005 -1.7 0.9
    endloop
  endfacet
  facet normal -1 0 0
    outer loop
      vertex -0.0005 -1.7 0
      vertex -0.0005 -1.7 0.9
      vertex -0.0005 1.7 0
    endloop
  endfacet
  facet normal 0 0 -1
    outer loop
      vertex -0.0005 -1.7 0
      vertex 2.0004166631960354 1.6998583982341426 0
      vertex 2.0005 -1.6986097228532484 0
    endloop
  endfacet
  facet normal 0 0 1
    outer loop
      vertex -0.0005 -1.7 0.9
      vertex 2.0005 -1.7 0.9
      vertex 2.0005 -1.699845524761472 0.9
    endloop
  endfacet
  facet normal 0 0 1
    outer loop
      vertex -0.0005 -1.7 0.9
      vertex 2.0005 -1.699845524761472 0.9
      vertex 2.0000499887553413 1.6992353632024788 0.9
    endloop
  endfacet
  facet normal 0 0 -1
    outer loop
      vertex -0.0005 -1.7 0
      vertex -0.0005 1.7 0
      vertex 2.0004166631960354 1.6998583982341426 0
    endloop
  endfacet
  facet normal -1 0 0
    outer loop
      vertex -0.0005 -1.7 0.9
      vertex -0.0005 1.7 0.9
      vertex -0.0005 1.7 0
    endloop
  endfacet
  facet normal 0 0 -1
    outer loop
      vertex -0.0005 1.7 0
      vertex 2.0005 1.7 0
      vertex 2.0004166631960354 1.6998583982341426 0
    endloop
  endfacet
  facet normal 0 1 0
    outer loop
      vertex -0.0005 1.7 0
      vertex 2.0005 1.7 0.9
      vertex 2.0005 1.7 0
    endloop
  endfacet
  facet normal 0 1 0
    outer loop
      vertex -0.0005 1.7 0
      vertex -0.0005 1.7 0.9
      vertex 2.0005 1.7 0.9
    endloop
  endfacet
  facet normal 0 0 1
    outer loop
      vertex -0.0005 -1.7 0.9
      vertex 2.0000499887553413 1.6992353632024788 0.9
      vertex -0.0005 1.7 0.9
    endloop
  endfacet
  facet normal 0 0 1
    outer loop
      vertex 2.0000499887553413 1.6992353632024788 0.9
      vertex 2.0005 1.7 0.9
      vertex -0.0005 1.7 0.9
    endloop
  endfacet
  facet normal 0 0 -1
    outer loop
      vertex 2.0005 -1.7 0
      vertex 2.0005 -1.6986097228532484 0
      vertex 4.200500000000001 -1.36 0
    endloop
  endfacet
  facet normal 0.1527322659035295 -0.9882676029051917 0
    outer loop
      vertex 2.0005 -1.7 0.9
      vertex 2.0005 -1.7 0
      vertex 4.200500000000001 -1.36 0
    endloop
  endfacet
  facet normal 0.1527322659035295 -0.9882676029051917 0
    outer loop
      vertex 4.200500000000001 -1.36 0
      vertex 4.200500000000001 -1.36 0.9
      vertex 2.0005 -1.7 0.9
    endloop
  endfacet
  facet normal 0 0 -1
    outer loop
      vertex 4.200500000000001 -1.36 0
      vertex 2.0005 -1.6986097228532484 0
      vertex 4.199735000217231 1.3589364382847458 0
    endloop
  endfacet
  facet normal 0 0 1
    outer loop
      vertex 2.0005 -1.7 0.9
      vertex 4.200500000000001 -1.36 0.9
      vertex 2.0005 -1.699845524761472 0.9
    endloop
  endfacet
  facet normal 0 0 1
    outer loop
      vertex 4.200500000000001 -1.36 0.9
      vertex 2.0000499887553413 1.6992353632024788 0.9
      vertex 2.0005 -1.699845524761472 0.9
    endloop
  endfacet
  facet normal 0 0 -1
    outer loop
      vertex 2.0005 -1.6986097228532484 0
      vertex 2.0004166631960354 1.6998583982341426 0
      vertex 4.199735000217231 1.3589364382847458 0
    endloop
  endfacet
  facet normal 0 0 -1
    outer loop
      vertex 4.200500000000001 1.355474209650581 0
      vertex 4.200500000000001 -1.36 0
      vertex 4.199735000217231 1.3589364382847458 0
    endloop
  endfacet
  facet normal 0 0 -1
    outer loop
      vertex 2.0004166631960354 1.6998583982341426 0
      vertex 2.0005 1.7 0
      vertex 4.200500000000001 1.36 0
    endloop
  endfacet
  facet normal 0 0 -1
    outer loop
      vertex 4.199735000217231 1.3589364382847458 0
      vertex 2.0004166631960354 1.6998583982341426 0
      vertex 4.200500000000001 1.36 0
    endloop
  endfacet
  facet normal 0.1527322659035295 0.9882676029051917 0
    outer loop
      vertex 2.0005 1.7 0
      vertex 2.0005 1.7 0.9
      vertex 4.200500000000001 1.36 0
    endloop
  endfacet
  facet normal 0.1527322659035295 0.9882676029051917 0
    outer loop
      vertex 4.200500000000001 1.36 0.9
      vertex 4.200500000000001 1.36 0
      vertex 2.0005 1.7 0.9
    endloop
  endfacet
  facet normal 0 0 1
    outer loop
      vertex 4.200500000000001 -1.36 0.9
      vertex 4.200500000000001 1.36 0.9
      vertex 2.0000499887553413 1.6992353632024788 0.9
    endloop
  endfacet
  facet normal 0 0 1
    outer loop
      vertex 2.0000499887553413 1.6992353632024788 0.9
      vertex 4.200500000000001 1.36 0.9
      vertex 2.0005 1.7 0.9
    endloop
  endfacet
  facet normal 0 -1 0
    outer loop
      vertex 4.200500000000001 -1.36 0
      vertex 4.8005 -1.36 0
      vertex 4.7995 -1.36 0.35
    endloop
  endfacet
  facet normal 0 -1 0
    outer loop
      vertex 4.200500000000001 -1.36 0
      vertex 4.7995 -1.36 0.35
      vertex 4.799954545454546 -1.36 0.35050000000000014
    endloop
  endfacet
  facet normal 0 -1 0
    outer loop
      vertex 4.200500000000001 -1.36 0
      vertex 4.799954545454546 -1.36 0.35050000000000014
      vertex 4.200500000000001 -1.36 0.9
    endloop
  endfacet
  facet normal 0 0 -1
    outer loop
      vertex 4.200500000000001 -1.36 0
      vertex 4.7995 1.36 0
      vertex 4.8005 -1.36 0
    endloop
  endfacet
  facet normal 0.6757246285173464 0 0.7371541402007414
    outer loop
      vertex 4.200500000000001 -1.36 0.9
      vertex 4.799954545454546 -1.36 0.35050000000000014
      vertex 4.799954545454546 1.36 0.35050000000000014
    endloop
  endfacet
  facet normal 0 0 -1
    outer loop
      vertex 4.200500000000001 1.355474209650581 0
      vertex 4.7995 1.36 0
      vertex 4.200500000000001 -1.36 0
    endloop
  endfacet
  facet normal 0.6757246285173464 0 0.7371541402007414
    outer loop
      vertex 4.799954545454546 1.36 0.35050000000000014
      vertex 4.200500000000001 1.36 0.9
      vertex 4.200500000000001 -1.36 0.9
    endloop
  endfacet
  facet normal 0 0 -1
    outer loop
      vertex 4.200500000000001 1.355474209650581 0
      vertex 4.199735000217231 1.3589364382847458 0
      vertex 4.7995 1.36 0
    endloop
  endfacet
  facet normal 0 0 -1
    outer loop
      vertex 4.200500000000001 1.36 0
      vertex 4.7995 1.36 0
      vertex 4.199735000217231 1.3589364382847458 0
    endloop
  endfacet
  facet normal 0 1 0
    outer loop
      vertex 4.7995 1.36 0
      vertex 4.200500000000001 1.36 0
      vertex 4.200500000000001 1.36 0.9
    endloop
  endfacet
  facet normal 0 1 0
    outer loop
      vertex 4.7995 1.36 0
      vertex 4.200500000000001 1.36 0.9
      vertex 4.7995 1.36 0.35
    endloop
  endfacet
  facet normal 0 1 0
    outer loop
      vertex 4.799954545454546 1.36 0.35050000000000014
      vertex 4.7995 1.36 0.35
      vertex 4.200500000000001 1.36 0.9
    endloop
  endfacet
  facet normal 0 -1 0
    outer loop
      vertex 4.8005 -1.36 0
      vertex 5.3005 -1.36 0.9
      vertex 4.7995 -1.36 0.35
    endloop
  endfacet
  facet normal 0 -1 0
    outer loop
      vertex 4.7995 -1.36 0.35
      vertex 5.3005 -1.36 0.9
      vertex 4.799954545454546 -1.36 0.35050000000000014
    endloop
  endfacet
  facet normal -0.739940073395944 0 0.6726727939963122
    outer loop
      vertex 4.799954545454546 -1.36 0.35050000000000014
      vertex 5.2995 -1.36 0.9
      vertex 4.799954545454546 1.36 0.35050000000000014
    endloop
  endfacet
  facet normal 0 0 -1
    outer loop
      vertex 5.2995 1.3545599999999982 0
      vertex 4.8005 -1.36 0
      vertex 4.7995 1.36 0
    endloop
  endfacet
  facet normal 0 1 0
    outer loop
      vertex 4.7995 1.36 0
      vertex 4.7995 1.36 0.35
      vertex 5.3005 1.36 0.9
    endloop
  endfacet
  facet normal 0 1 0
    outer loop
      vertex 4.799954545454546 1.36 0.35050000000000014
      vertex 5.3005 1.36 0.9
      vertex 4.7995 1.36 0.35
    endloop
  endfacet
  facet normal 0 0 -1
    outer loop
      vertex 5.3005 -1.3589929655683077 0
      vertex 5.3005 -1.36 0
      vertex 4.8005 -1.36 0
    endloop
  endfacet
  facet normal 0 -1 0
    outer loop
      vertex 5.3005 -1.36 0
      vertex 5.3005 -1.36 0.9
      vertex 4.8005 -1.36 0
    endloop
  endfacet
  facet normal 0 -1 0
    outer loop
      vertex 4.799954545454546 -1.36 0.35050000000000014
      vertex 5.3005 -1.36 0.9
      vertex 5.2995 -1.36 0.9
    endloop
  endfacet
  facet normal 0 0 -1
    outer loop
      vertex 5.3005 -1.3589929655683077 0
      vertex 4.8005 -1.36 0
      vertex 5.2995 1.3545599999999982 0
    endloop
  endfacet
  facet normal -0.739940073395944 0 0.6726727939963122
    outer loop
      vertex 5.2995 -1.36 0.9
      vertex 5.2995 1.36 0.9
      vertex 4.799954545454546 1.36 0.35050000000000014
    endloop
  endfacet
  facet normal 0 0 -1
    outer loop
      vertex 5.2995 1.3545599999999982 0
      vertex 4.7995 1.36 0
      vertex 5.3005 1.36 0
    endloop
  endfacet
  facet normal 0 1 0
    outer loop
      vertex 5.3005 1.36 0.9
      vertex 5.3005 1.36 0
      vertex 4.7995 1.36 0
    endloop
  endfacet
  facet normal 0 1 0
    outer loop
      vertex 5.2995 1.36 0.9
      vertex 5.3005 1.36 0.9
      vertex 4.799954545454546 1.36 0.35050000000000014
    endloop
  endfacet
  facet normal 0 0 -1
    outer loop
      vertex 7.9995 -1.36 0
      vertex 5.3005 -1.36 0
      vertex 5.3005 -1.3589929655683077 0
    endloop
  endfacet
  facet normal 0 -1 0
    outer loop
      vertex 7.9995 -1.36 0
      vertex 7.9995 -1.36 1.7
      vertex 5.3005 -1.36 0
    endloop
  endfacet
  facet normal 0 0 -1
    outer loop
      vertex 7.9995 -1.36 0
      vertex 5.3005 -1.3589929655683077 0
      vertex 7.9995 1.3589929655683077 0
    endloop
  endfacet
  facet normal 0 -1 0
    outer loop
      vertex 5.3005 -1.36 0
      vertex 7.9995 -1.36 1.7
      vertex 5.3005 -1.36 0.9
    endloop
  endfacet
  facet normal 0 -1 0
    outer loop
      vertex 5.2995 -1.36 0.9
      vertex 5.3005 -1.36 0.9
      vertex 7.9995 -1.36 1.7
    endloop
  endfacet
  facet normal -0.28408832969137393 0 0.9587981127083872
    outer loop
      vertex 5.2995 -1.36 0.9
      vertex 7.9995 -1.36 1.7
      vertex 7.9995 1.36 1.7
    endloop
  endfacet
  facet normal 0 0 -1
    outer loop
      vertex 5.3005 -1.3589929655683077 0
      vertex 5.2995 1.3545599999999982 0
      vertex 7.9995 1.3589929655683077 0
    endloop
  endfacet
  facet normal 0 0 -1
    outer loop
      vertex 7.9995 1.3589929655683077 0
      vertex 5.2995 1.3545599999999982 0
      vertex 5.3005 1.36 0
    endloop
  endfacet
  facet normal 0 1 0
    outer loop
      vertex 5.3005 1.36 0
      vertex 5.3005 1.36 0.9
      vertex 7.9995 1.36 0
    endloop
  endfacet
  facet normal 0 0 -1
    outer loop
      vertex 5.3005 1.36 0
      vertex 7.9995 1.36 0
      vertex 7.999682010902483 1.359176256814052 0
    endloop
  endfacet
  facet normal 0 0 -1
    outer loop
      vertex 7.9995 1.3589929655683077 0
      vertex 5.3005 1.36 0
      vertex 7.999682010902483 1.359176256814052 0
    endloop
  endfacet
  facet normal -0.28408832969137393 0 0.9587981127083872
    outer loop
      vertex 5.2995 -1.36 0.9
      vertex 7.9995 1.36 1.7
      vertex 5.2995 1.36 0.9
    endloop
  endfacet
  facet normal 0 1 0
    outer loop
      vertex 5.2995 1.36 0.9
      vertex 7.9995 1.36 1.7
      vertex 5.3005 1.36 0.9
    endloop
  endfacet
  facet normal 0 1 0
    outer loop
      vertex 7.9995 1.36 0
      vertex 5.3005 1.36 0.9
      vertex 7.9995 1.36 1.7
    endloop
  endfacet
  facet normal 0 -1 0
    outer loop
      vertex 7.9995 -1.36 1.7
      vertex 7.9995 -1.36 0
      vertex 8.600499999999998 -1.36 0
    endloop
  endfacet
  facet normal 0 -1 0
    outer loop
      vertex 8.600499999999998 -1.36 0
      vertex 8.600499999999998 -1.36 0.4
      vertex 7.9995 -1.36 1.7
    endloop
  endfacet
  facet normal 0 0 -1
    outer loop
      vertex 7.9995 1.3589929655683077 0
      vertex 8.600499999999998 -1.36 0
      vertex 7.9995 -1.36 0
    endloop
  endfacet
  facet normal 0.9079593845004522 0 0.41905817746174573
    outer loop
      vertex 8.600499999999998 -1.36 0.4
      vertex 8.600499999999998 1.36 0.4
      vertex 8.0005 -1.36 1.7
    endloop
  endfacet
  facet normal 0 -1 0
    outer loop
      vertex 7.9995 -1.36 1.7
      vertex 8.600499999999998 -1.36 0.4
      vertex 8.0005 -1.36 1.7
    endloop
  endfacet
  facet normal 0 0 1
    outer loop
      vertex 8.0005 -1.36 1.7
      vertex 7.9995 1.36 1.7
      vertex 7.9995 -1.36 1.7
    endloop
  endfacet
  facet normal 0 0 -1
    outer loop
      vertex 7.9995 1.3589929655683077 0
      vertex 7.999682010902483 1.359176256814052 0
      vertex 8.600499999999998 -1.36 0
    endloop
  endfacet
  facet normal 0 0 -1
    outer loop
      vertex 8.600499999999998 1.36 0
      vertex 8.600499999999998 -1.36 0
      vertex 7.999682010902483 1.359176256814052 0
    endloop
  endfacet
  facet normal 0 0 -1
    outer loop
      vertex 7.999682010902483 1.359176256814052 0
      vertex 7.9995 1.36 0
      vertex 8.600499999999998 1.36 0
    endloop
  endfacet
  facet normal 0 1 0
    outer loop
      vertex 8.600499999999998 1.36 0
      vertex 7.9995 1.36 0
      vertex 8.600499999999998 1.36 0.4
    endloop
  endfacet
  facet normal 0 1 0
    outer loop
      vertex 7.9995 1.36 0
      vertex 7.9995 1.36 1.7
      vertex 8.600499999999998 1.36 0.4
    endloop
  endfacet
  facet normal 0.9079593845004522 0 0.41905817746174573
    outer loop
      vertex 8.0005 1.36 1.7
      vertex 8.0005 -1.36 1.7
      vertex 8.600499999999998 1.36 0.4
    endloop
  endfacet
  facet normal 0 0 1
    outer loop
      vertex 8.0005 -1.36 1.7
      vertex 8.0005 1.36 1.7
      vertex 7.9995 1.36 1.7
    endloop
  endfacet
  facet normal 0 1 0
    outer loop
      vertex 8.0005 1.36 1.7
      vertex 8.600499999999998 1.36 0.4
      vertex 7.9995 1.36 1.7
    endloop
  endfacet
  facet normal 0.31215328897044675 -0.9500317490404901 0
    outer loop
      vertex 10.000499999999999 -0.9 0
      vertex 10.000499999999999 -0.9 0.4
      vertex 8.600499999999998 -1.36 0
    endloop
  endfacet
  facet normal 0.31215328897044675 -0.9500317490404901 0
    outer loop
      vertex 10.000499999999999 -0.9 0.4
      vertex 8.600499999999998 -1.36 0.4
      vertex 8.600499999999998 -1.36 0
    endloop
  endfacet
  facet normal 0 0 1
    outer loop
      vertex 10.000499999999999 -0.9 0.4
      vertex 10.000499999999999 0.9 0.4
      vertex 8.600499999999998 -1.36 0.4
    endloop
  endfacet
  facet normal 0 0 -1
    outer loop
      vertex 10.000499999999999 -0.9 0
      vertex 8.600499999999998 -1.36 0
      vertex 8.600499999999998 1.36 0
    endloop
  endfacet
  facet normal 1 0 0
    outer loop
      vertex 10.000499999999999 -0.9 0
      vertex 10.000499999999999 0.9 0.4
      vertex 10.000499999999999 -0.9 0.4
    endloop
  endfacet
  facet normal 1 0 0
    outer loop
      vertex 10.000499999999999 -0.9 0
      vertex 10.000499999999999 0.9 0
      vertex 10.000499999999999 0.9 0.4
    endloop
  endfacet
  facet normal 0 0 1
    outer loop
      vertex 10.000499999999999 0.9 0.4
      vertex 8.600499999999998 1.36 0.4
      vertex 8.600499999999998 -1.36 0.4
    endloop
  endfacet
  facet normal 0 0 -1
    outer loop
      vertex 10.000499999999999 -0.9 0
      vertex 8.600499999999998 1.36 0
      vertex 10.000499999999999 0.9 0
    endloop
  endfacet
  facet normal 0.31215328897044675 0.9500317490404901 0
    outer loop
      vertex 10.000499999999999 0.9 0
      vertex 8.600499999999998 1.36 0
      vertex 8.600499999999998 1.36 0.4
    endloop
  endfacet
  facet normal 0.31215328897044675 0.9500317490404901 0
    outer loop
      vertex 10.000499999999999 0.9 0
      vertex 8.600499999999998 1.36 0.4
      vertex 10.000499999999999 0.9 0.4
    endloop
  endfacet
endsolid OpenSCAD_Model
