solid OpenSCAD_Model
  facet normal 0 -1 0
    outer loop
      vertex 0.0005 -9.85 0
      vertex -0.0005 -9.85 1.1
      vertex -0.0005 -9.85 0
    endloop
  endfacet
  facet normal 0 0 -1
    outer loop
      vertex 0.0005 -9.85 0
      vertex 2.0005 -9.849687695190505 0
      vertex 2.0005 -9.85 0
    endloop
  endfacet
  facet normal 0 -1 0
    outer loop
      vertex 0.0005 -9.85 0
      vertex 2.0005 -9.85 0
      vertex 2.0005 -9.85 1.1
    endloop
  endfacet
  facet normal 0 -1 0
    outer loop
      vertex 0.0005 -9.85 0
      vertex 2.0005 -9.85 1.1
      vertex -0.0005 -9.85 1.1
    endloop
  endfacet
  facet normal 0 0 -1
    outer loop
      vertex 0.0005 -9.85 0
      vertex -0.0005 -9.85 0
      vertex -0.0005 9.85 0
    endloop
  endfacet
  facet normal -1 0 0
    outer loop
      vertex -0.0005 -9.85 0
      vertex -0.0005 -9.85 1.1
      vertex -0.0005 9.85 0
    endloop
  endfacet
  facet normal 0 0 -1
    outer loop
      vertex 0.0005 -9.85 0
      vertex 1.9995 9.840149999999998 0
      vertex 2.0005 -9.849687695190505 0
    endloop
  endfacet
  facet normal 0 0 1
    outer loop
      vertex -0.0005 -9.85 1.1
      vertex 2.0005 -9.85 1.1
      vertex 2.0005 -9.838007495315425 1.1
    endloop
  endfacet
  facet normal 0 0 1
    outer loop
      vertex -0.0005 -9.85 1.1
      vertex 2.0005 -9.838007495315425 1.1
      vertex 2.0004692534157753 9.849697297496634 1.1
    endloop
  endfacet
  facet normal 0 0 -1
    outer loop
      vertex 0.0005 -9.85 0
      vertex -0.0005 9.85 0
      vertex 1.9995 9.840149999999998 0
    endloop
  endfacet
  facet normal -1 0 0
    outer loop
      vertex -0.0005 -9.85 1.1
      vertex -0.0005 9.85 1.1
      vertex -0.0005 9.85 0
    endloop
  endfacet
  facet normal 0 0 -1
    outer loop
      vertex -0.0005 9.85 0
      vertex 2.0005 9.85 0
      vertex 1.9995 9.840149999999998 0
    endloop
  endfacet
  facet normal 0 1 0
    outer loop
      vertex -0.0005 9.85 0
      vertex 2.0005 9.85 1.1
      vertex 2.0005 9.85 0
    endloop
  endfacet
  facet normal 0 1 0
    outer loop
      vertex -0.0005 9.85 0
      vertex -0.0005 9.85 1.1
      vertex 2.0005 9.85 1.1
    endloop
  endfacet
  facet normal 0 0 1
    outer loop
      vertex -0.0005 -9.85 1.1
      vertex 2.0004692534157753 9.849697297496634 1.1
      vertex -0.0005 9.85 1.1
    endloop
  endfacet
  facet normal 0 0 1
    outer loop
      vertex -0.0005 9.85 1.1
      vertex 2.0004692534157753 9.849697297496634 1.1
      vertex 2.0005 9.85 1.1
    endloop
  endfacet
  facet normal 0 0 -1
    outer loop
      vertex 2.0005 -9.849687695190505 0
      vertex 3.6005 -9.35 0
      vertex 2.0005 -9.85 0
    endloop
  endfacet
  facet normal 0.29827499313594685 -0.9544799780350297 0
    outer loop
      vertex 2.0005 -9.85 1.1
      vertex 2.0005 -9.85 0
      vertex 3.6005 -9.35 0
    endloop
  endfacet
  facet normal 0.29827499313594685 -0.9544799780350297 0
    outer loop
      vertex 3.6005 -9.35 0
      vertex 3.6005 -9.35 1.1
      vertex 2.0005 -9.85 1.1
    endloop
  endfacet
  facet normal 0 0 -1
    outer loop
      vertex 1.9995 9.840149999999998 0
      vertex 3.6005 -9.35 0
      vertex 2.0005 -9.849687695190505 0
    endloop
  endfacet
  facet normal 0 0 -1
    outer loop
      vertex 1.9995 9.840149999999998 0
      vertex 3.5995 -9.338007495315429 0
      vertex 3.6005 -9.35 0
    endloop
  endfacet
  facet normal 0 0 1
    outer loop
      vertex 2.0005 -9.85 1.1
      vertex 3.6005 -9.35 1.1
      vertex 2.0005 -9.838007495315425 1.1
    endloop
  endfacet
  facet normal 0 0 1
    outer loop
      vertex 3.6005 -9.35 1.1
      vertex 2.0004692534157753 9.849697297496634 1.1
      vertex 2.0005 -9.838007495315425 1.1
    endloop
  endfacet
  facet normal 0 0 -1
    outer loop
      vertex 3.5995 -9.338007495315429 0
      vertex 1.9995 9.840149999999998 0
      vertex 3.6005 9.35 0
    endloop
  endfacet
  facet normal 0 0 -1
    outer loop
      vertex 3.6005 9.318885191347757 0
      vertex 3.5995 -9.338007495315429 0
      vertex 3.6005 9.35 0
    endloop
  endfacet
  facet normal 0 0 -1
    outer loop
      vertex 1.9995 9.840149999999998 0
      vertex 2.0005 9.85 0
      vertex 3.6005 9.35 0
    endloop
  endfacet
  facet normal 0.29827499313594685 0.9544799780350297 0
    outer loop
      vertex 3.6005 9.35 1.1
      vertex 3.6005 9.35 0
      vertex 2.0005 9.85 0
    endloop
  endfacet
  facet normal 0.29827499313594685 0.9544799780350297 0
    outer loop
      vertex 2.0005 9.85 0
      vertex 2.0005 9.85 1.1
      vertex 3.6005 9.35 1.1
    endloop
  endfacet
  facet normal 0 0 1
    outer loop
      vertex 3.6005 -9.35 1.1
      vertex 3.6005 9.35 1.1
      vertex 2.0004692534157753 9.849697297496634 1.1
    endloop
  endfacet
  facet normal 0 0 1
    outer loop
      vertex 2.0005 9.85 1.1
      vertex 2.0004692534157753 9.849697297496634 1.1
      vertex 3.6005 9.35 1.1
    endloop
  endfacet
  facet normal 0 0 -1
    outer loop
      vertex 3.6005 -9.35 0
      vertex 3.5995 -9.338007495315429 0
      vertex 4.199954627949184 -9.333030852994549 0
    endloop
  endfacet
  facet normal 0 0 -1
    outer loop
      vertex 4.1995000000000005 -9.35 0
      vertex 3.6005 -9.35 0
      vertex 4.199954627949184 -9.333030852994549 0
    endloop
  endfacet
  facet normal 0 -1 0
    outer loop
      vertex 4.1995000000000005 -9.35 0.45
      vertex 3.6005 -9.35 0
      vertex 4.1995000000000005 -9.35 0
    endloop
  endfacet
  facet normal 0 -1 0
    outer loop
      vertex 3.6005 -9.35 0
      vertex 4.1995000000000005 -9.35 0.45
      vertex 4.199954545454546 -9.35 0.4505909090909093
    endloop
  endfacet
  facet normal 0 -1 0
    outer loop
      vertex 3.6005 -9.35 0
      vertex 4.199954545454546 -9.35 0.4505909090909093
      vertex 3.6005 -9.35 1.1
    endloop
  endfacet
  facet normal 0 0 -1
    outer loop
      vertex 3.6005 9.318885191347757 0
      vertex 4.199954627949184 -9.333030852994549 0
      vertex 3.5995 -9.338007495315429 0
    endloop
  endfacet
  facet normal 0.7348034446274873 0 0.6782801027330665
    outer loop
      vertex 3.6005 -9.35 1.1
      vertex 4.199954545454546 -9.35 0.4505909090909093
      vertex 4.199954545454546 9.35 0.4505909090909093
    endloop
  endfacet
  facet normal 0 0 -1
    outer loop
      vertex 3.6005 9.318885191347757 0
      vertex 4.1995000000000005 9.35 0
      vertex 4.199954627949184 -9.333030852994549 0
    endloop
  endfacet
  facet normal 0.7348034446274873 0 0.6782801027330665
    outer loop
      vertex 3.6005 -9.35 1.1
      vertex 4.199954545454546 9.35 0.4505909090909093
      vertex 3.6005 9.35 1.1
    endloop
  endfacet
  facet normal 0 0 -1
    outer loop
      vertex 3.6005 9.318885191347757 0
      vertex 3.6005 9.35 0
      vertex 4.1995000000000005 9.35 0
    endloop
  endfacet
  facet normal 0 1 0
    outer loop
      vertex 3.6005 9.35 0
      vertex 3.6005 9.35 1.1
      vertex 4.1995000000000005 9.35 0
    endloop
  endfacet
  facet normal 0 1 0
    outer loop
      vertex 4.1995000000000005 9.35 0
      vertex 3.6005 9.35 1.1
      vertex 4.1995000000000005 9.35 0.45
    endloop
  endfacet
  facet normal 0 1 0
    outer loop
      vertex 4.199954545454546 9.35 0.4505909090909093
      vertex 4.1995000000000005 9.35 0.45
      vertex 3.6005 9.35 1.1
    endloop
  endfacet
  facet normal 0 0 -1
    outer loop
      vertex 4.1995000000000005 -9.35 0
      vertex 4.199954627949184 -9.333030852994549 0
      vertex 4.700500000000001 -9.35 0
    endloop
  endfacet
  facet normal 0 0 -1
    outer loop
      vertex 4.700500000000001 -9.341873098652757 0
      vertex 4.700500000000001 -9.35 0
      vertex 4.199954627949184 -9.333030852994549 0
    endloop
  endfacet
  facet normal 0 -1 0
    outer loop
      vertex 4.700500000000001 -9.35 0
      vertex 4.700500000000001 -9.35 1.1
      vertex 4.1995000000000005 -9.35 0
    endloop
  endfacet
  facet normal 0 -1 0
    outer loop
      vertex 4.1995000000000005 -9.35 0.45
      vertex 4.1995000000000005 -9.35 0
      vertex 4.700500000000001 -9.35 1.1
    endloop
  endfacet
  facet normal 0 -1 0
    outer loop
      vertex 4.1995000000000005 -9.35 0.45
      vertex 4.700500000000001 -9.35 1.1
      vertex 4.199954545454546 -9.35 0.4505909090909093
    endloop
  endfacet
  facet normal 0 -1 0
    outer loop
      vertex 4.199954545454546 -9.35 0.4505909090909093
      vertex 4.700500000000001 -9.35 1.1
      vertex 4.6995000000000005 -9.35 1.1
    endloop
  endfacet
  facet normal 0 0 -1
    outer loop
      vertex 4.700500000000001 -9.341873098652757 0
      vertex 4.199954627949184 -9.333030852994549 0
      vertex 4.6995000000000005 9.31267465069859 0
    endloop
  endfacet
  facet normal -0.7926239891046004 0 0.6097107608496921
    outer loop
      vertex 4.199954545454546 -9.35 0.4505909090909093
      vertex 4.6995000000000005 -9.35 1.1
      vertex 4.199954545454546 9.35 0.4505909090909093
    endloop
  endfacet
  facet normal 0 0 -1
    outer loop
      vertex 4.199954627949184 -9.333030852994549 0
      vertex 4.1995000000000005 9.35 0
      vertex 4.6995000000000005 9.31267465069859 0
    endloop
  endfacet
  facet normal -0.7926239891046004 0 0.6097107608496921
    outer loop
      vertex 4.199954545454546 9.35 0.4505909090909093
      vertex 4.6995000000000005 -9.35 1.1
      vertex 4.6995000000000005 9.35 1.1
    endloop
  endfacet
  facet normal 0 0 -1
    outer loop
      vertex 4.6995000000000005 9.31267465069859 0
      vertex 4.1995000000000005 9.35 0
      vertex 4.700500000000001 9.35 0
    endloop
  endfacet
  facet normal 0 1 0
    outer loop
      vertex 4.700500000000001 9.35 1.1
      vertex 4.700500000000001 9.35 0
      vertex 4.1995000000000005 9.35 0
    endloop
  endfacet
  facet normal 0 1 0
    outer loop
      vertex 4.1995000000000005 9.35 0
      vertex 4.1995000000000005 9.35 0.45
      vertex 4.700500000000001 9.35 1.1
    endloop
  endfacet
  facet normal 0 1 0
    outer loop
      vertex 4.199954545454546 9.35 0.4505909090909093
      vertex 4.700500000000001 9.35 1.1
      vertex 4.1995000000000005 9.35 0.45
    endloop
  endfacet
  facet normal 0 1 0
    outer loop
      vertex 4.6995000000000005 9.35 1.1
      vertex 4.700500000000001 9.35 1.1
      vertex 4.199954545454546 9.35 0.4505909090909093
    endloop
  endfacet
  facet normal 0 0 -1
    outer loop
      vertex 6.9995 -9.35 0
      vertex 4.700500000000001 -9.35 0
      vertex 4.700500000000001 -9.341873098652757 0
    endloop
  endfacet
  facet normal 0 0 -1
    outer loop
      vertex 6.9995 -9.35 0
      vertex 4.700500000000001 -9.341873098652757 0
      vertex 7.000500000000001 -9.318885191347743 0
    endloop
  endfacet
  facet normal 0 -1 0
    outer loop
      vertex 4.700500000000001 -9.35 0
      vertex 6.9995 -9.35 0
      vertex 6.9995 -9.35 1.8
    endloop
  endfacet
  facet normal 0 0 -1
    outer loop
      vertex 4.700500000000001 -9.341873098652757 0
      vertex 6.9995 9.341873098652757 0
      vertex 7.000500000000001 -9.318885191347743 0
    endloop
  endfacet
  facet normal 0 -1 0
    outer loop
      vertex 4.700500000000001 -9.35 0
      vertex 6.9995 -9.35 1.8
      vertex 4.700500000000001 -9.35 1.1
    endloop
  endfacet
  facet normal 0 -1 0
    outer loop
      vertex 4.6995000000000005 -9.35 1.1
      vertex 4.700500000000001 -9.35 1.1
      vertex 6.9995 -9.35 1.8
    endloop
  endfacet
  facet normal -0.291161615782696 0 0.9566738804288584
    outer loop
      vertex 4.6995000000000005 -9.35 1.1
      vertex 6.9995 -9.35 1.8
      vertex 4.6995000000000005 9.35 1.1
    endloop
  endfacet
  facet normal 0 0 -1
    outer loop
      vertex 4.700500000000001 -9.341873098652757 0
      vertex 4.6995000000000005 9.31267465069859 0
      vertex 6.9995 9.341873098652757 0
    endloop
  endfacet
  facet normal 0 0 -1
    outer loop
      vertex 6.9995 9.341873098652757 0
      vertex 4.6995000000000005 9.31267465069859 0
      vertex 4.700500000000001 9.35 0
    endloop
  endfacet
  facet normal 0 0 -1
    outer loop
      vertex 6.9995 9.341873098652757 0
      vertex 4.700500000000001 9.35 0
      vertex 6.9995 9.35 0
    endloop
  endfacet
  facet normal 0 1 0
    outer loop
      vertex 4.700500000000001 9.35 0
      vertex 4.700500000000001 9.35 1.1
      vertex 6.9995 9.35 0
    endloop
  endfacet
  facet normal -0.291161615782696 0 0.9566738804288584
    outer loop
      vertex 4.6995000000000005 9.35 1.1
      vertex 6.9995 -9.35 1.8
      vertex 6.9995 9.35 1.8
    endloop
  endfacet
  facet normal 0 1 0
    outer loop
      vertex 6.9995 9.35 0
      vertex 4.700500000000001 9.35 1.1
      vertex 6.9995 9.35 1.8
    endloop
  endfacet
  facet normal 0 1 0
    outer loop
      vertex 4.6995000000000005 9.35 1.1
      vertex 6.9995 9.35 1.8
      vertex 4.700500000000001 9.35 1.1
    endloop
  endfacet
  facet normal 0 -1 0
    outer loop
      vertex 7.6005 -9.35 0
      vertex 7.6005 -9.35 1.8
      vertex 6.9995 -9.35 0
    endloop
  endfacet
  facet normal 0 0 -1
    outer loop
      vertex 7.6005 9.349375260308204 0
      vertex 6.9995 -9.35 0
      vertex 7.000500000000001 -9.318885191347743 0
    endloop
  endfacet
  facet normal 0 0 -1
    outer loop
      vertex 7.6005 9.349375260308204 0
      vertex 7.6005 -9.35 0
      vertex 6.9995 -9.35 0
    endloop
  endfacet
  facet normal 0 -1 0
    outer loop
      vertex 6.9995 -9.35 1.8
      vertex 6.9995 -9.35 0
      vertex 7.6005 -9.35 1.8
    endloop
  endfacet
  facet normal 0 0 1
    outer loop
      vertex 7.6005 -9.35 1.8
      vertex 7.6005 9.35 1.8
      vertex 6.9995 -9.35 1.8
    endloop
  endfacet
  facet normal 0 0 -1
    outer loop
      vertex 6.9995 9.341873098652757 0
      vertex 7.60048031667984 9.349387557259574 0
      vertex 7.000500000000001 -9.318885191347743 0
    endloop
  endfacet
  facet normal 0 0 -1
    outer loop
      vertex 7.6005 9.349375260308204 0
      vertex 7.000500000000001 -9.318885191347743 0
      vertex 7.60048031667984 9.349387557259574 0
    endloop
  endfacet
  facet normal 0 0 -1
    outer loop
      vertex 6.9995 9.341873098652757 0
      vertex 6.9995 9.35 0
      vertex 7.60048031667984 9.349387557259574 0
    endloop
  endfacet
  facet normal 0 0 -1
    outer loop
      vertex 7.60048031667984 9.349387557259574 0
      vertex 6.9995 9.35 0
      vertex 7.6005 9.35 0
    endloop
  endfacet
  facet normal 0 1 0
    outer loop
      vertex 7.6005 9.35 0
      vertex 6.9995 9.35 0
      vertex 7.6005 9.35 1.8
    endloop
  endfacet
  facet normal 0 0 1
    outer loop
      vertex 6.9995 -9.35 1.8
      vertex 7.6005 9.35 1.8
      vertex 6.9995 9.35 1.8
    endloop
  endfacet
  facet normal 0 1 0
    outer loop
      vertex 6.9995 9.35 0
      vertex 6.9995 9.35 1.8
      vertex 7.6005 9.35 1.8
    endloop
  endfacet
  facet normal 0.5299989400031803 -0.8479983040050879 0
    outer loop
      vertex 10.000499999999999 -7.85 0
      vertex 10.000499999999999 -7.85 0.6
      vertex 7.6005 -9.35 0
    endloop
  endfacet
  facet normal 0.5299989400031802 -0.8479983040050877 0
    outer loop
      vertex 10.000499999999999 -7.85 0.6
      vertex 7.6005 -9.35 1.8
      vertex 7.6005 -9.35 0
    endloop
  endfacet
  facet normal 0 0 -1
    outer loop
      vertex 10.000499999999999 -7.85 0
      vertex 7.6005 -9.35 0
      vertex 7.6005 9.349375260308204 0
    endloop
  endfacet
  facet normal 1 0 0
    outer loop
      vertex 10.000499999999999 -7.85 0
      vertex 10.000499999999999 7.85 0.6
      vertex 10.000499999999999 -7.85 0.6
    endloop
  endfacet
  facet normal 0.4472135954999582 0 0.8944271909999157
    outer loop
      vertex 10.000499999999999 -7.85 0.6
      vertex 10.000499999999999 7.85 0.6
      vertex 7.6005 -9.35 1.8
    endloop
  endfacet
  facet normal 0 0 -1
    outer loop
      vertex 10.000499999999999 -7.85 0
      vertex 7.6005 9.349375260308204 0
      vertex 10.000499999999999 7.85 0
    endloop
  endfacet
  facet normal 1 0 0
    outer loop
      vertex 10.000499999999999 -7.85 0
      vertex 10.000499999999999 7.85 0
      vertex 10.000499999999999 7.85 0.6
    endloop
  endfacet
  facet normal 0 0 -1
    outer loop
      vertex 7.6005 9.349375260308204 0
      vertex 7.60048031667984 9.349387557259574 0
      vertex 7.6005 9.35 0
    endloop
  endfacet
  facet normal 0 0 -1
    outer loop
      vertex 10.000499999999999 7.85 0
      vertex 7.6005 9.349375260308204 0
      vertex 7.6005 9.35 0
    endloop
  endfacet
  facet normal 0.5299989400031802 0.8479983040050877 0
    outer loop
      vertex 10.000499999999999 7.85 0
      vertex 7.6005 9.35 0
      vertex 7.6005 9.35 1.8
    endloop
  endfacet
  facet normal 0.5299989400031803 0.8479983040050879 0
    outer loop
      vertex 10.000499999999999 7.85 0
      vertex 7.6005 9.35 1.8
      vertex 10.000499999999999 7.85 0.6
    endloop
  endfacet
  facet normal 0.4472135954999582 0 0.8944271909999157
    outer loop
      vertex 10.000499999999999 7.85 0.6
      vertex 7.6005 9.35 1.8
      vertex 7.6005 -9.35 1.8
    endloop
  endfacet
endsolid OpenSCAD_Model
