solid OpenSCAD_Model
  facet normal 0 0 -1
    outer loop
      vertex -13 -7.5 0
      vertex -13 7.5 0
      vertex 0 3.5 0
    endloop
  endfacet
  facet normal -1 0 0
    outer loop
      vertex -13 -7.5 0
      vertex -13 7.5 1.8
      vertex -13 7.5 0
    endloop
  endfacet
  facet normal 0.2940858488375231 -0.95577900872195 0
    outer loop
      vertex 0 -3.5 0
      vertex -13 -7.5 1.8
      vertex -13 -7.5 0
    endloop
  endfacet
  facet normal 0 0 -1
    outer loop
      vertex 0 -3.5 0
      vertex -13 -7.5 0
      vertex 0 3.5 0
    endloop
  endfacet
  facet normal 0.2940858488375231 0.95577900872195 0
    outer loop
      vertex -13 7.5 0
      vertex 0 3.5 1.8
      vertex 0 3.5 0
    endloop
  endfacet
  facet normal -1 0 0
    outer loop
      vertex -13 -7.5 0
      vertex -13 -7.5 1.8
      vertex -13 7.5 1.8
    endloop
  endfacet
  facet normal 0 0 1
    outer loop
      vertex 0 3.5 1.8
      vertex -13 7.5 1.8
      vertex -13 -7.5 1.8
    endloop
  endfacet
  facet normal 0.2940858488375231 0.95577900872195 0
    outer loop
      vertex -13 7.5 0
      vertex -13 7.5 1.8
      vertex 0 3.5 1.8
    endloop
  endfacet
  facet normal 0.2940858488375231 -0.95577900872195 0
    outer loop
      vertex 0 -3.5 0
      vertex 0 -3.5 1.8
      vertex -13 -7.5 1.8
    endloop
  endfacet
  facet normal 0 0 1
    outer loop
      vertex 0 3.5 1.8
      vertex -13 -7.5 1.8
      vertex 0 -3.5 1.8
    endloop
  endfacet
  facet normal 0 0 -1
    outer loop
      vertex 0 -3.5 0
      vertex 0 3.5 0
      vertex 13 7.5 0
    endloop
  endfacet
  facet normal -0.2940858488375231 -0.95577900872195 0
    outer loop
      vertex 13 -7.5 0
      vertex 0 -3.5 1.8
      vertex 0 -3.5 0
    endloop
  endfacet
  facet normal 0 0 -1
    outer loop
      vertex 0 -3.5 0
      vertex 13 7.5 0
      vertex 13 -7.5 0
    endloop
  endfacet
  facet normal 1 0 0
    outer loop
      vertex 13 7.5 0
      vertex 13 -7.5 1.8
      vertex 13 -7.5 0
    endloop
  endfacet
  facet normal -0.2940858488375231 0.95577900872195 0
    outer loop
      vertex 0 3.5 0
      vertex 13 7.5 1.8
      vertex 13 7.5 0
    endloop
  endfacet
  facet normal -0.2940858488375231 0.95577900872195 0
    outer loop
      vertex 0 3.5 0
      vertex 0 3.5 1.8
      vertex 13 7.5 1.8
    endloop
  endfacet
  facet normal 0 0 1
    outer loop
      vertex 13 7.5 1.8
      vertex 0 3.5 1.8
      vertex 0 -3.5 1.8
    endloop
  endfacet
  facet normal -0.2940858488375231 -0.95577900872195 0
    outer loop
      vertex 13 -7.5 0
      vertex 13 -7.5 1.8
      vertex 0 -3.5 1.8
    endloop
  endfacet
  facet normal 1 0 0
    outer loop
      vertex 13 7.5 0
      vertex 13 7.5 1.8
      vertex 13 -7.5 1.8
    endloop
  endfacet
  facet normal 0 0 1
    outer loop
      vertex 13 -7.5 1.8
      vertex 13 7.5 1.8
      vertex 0 -3.5 1.8
    endloop
  endfacet
  facet normal 0.2940858488375231 -0.95577900872195 0
    outer loop
      vertex 0 15.5 0
      vertex -13 11.5 1.8
      vertex -13 11.5 0
    endloop
  endfacet
  facet normal 0 0 -1
    outer loop
      vertex 0 15.5 0
      vertex -13 11.5 0
      vertex 0 22.5 0
    endloop
  endfacet
  facet normal -1 0 0
    outer loop
      vertex -13 11.5 0
      vertex -13 11.5 1.8
      vertex -13 26.5 1.8
    endloop
  endfacet
  facet normal 0.2940858488375231 -0.95577900872195 0
    outer loop
      vertex 0 15.5 0
      vertex 0 15.5 1.8
      vertex -13 11.5 1.8
    endloop
  endfacet
  facet normal 0 0 1
    outer loop
      vertex 0 22.5 1.8
      vertex -13 11.5 1.8
      vertex 0 15.5 1.8
    endloop
  endfacet
  facet normal 0 0 -1
    outer loop
      vertex -13 11.5 0
      vertex -13 26.5 0
      vertex 0 22.5 0
    endloop
  endfacet
  facet normal -1 0 0
    outer loop
      vertex -13 11.5 0
      vertex -13 26.5 1.8
      vertex -13 26.5 0
    endloop
  endfacet
  facet normal 0.2940858488375231 0.95577900872195 0
    outer loop
      vertex -13 26.5 0
      vertex 0 22.5 1.8
      vertex 0 22.5 0
    endloop
  endfacet
  facet normal 0.2940858488375231 0.95577900872195 0
    outer loop
      vertex -13 26.5 0
      vertex -13 26.5 1.8
      vertex 0 22.5 1.8
    endloop
  endfacet
  facet normal 0 0 1
    outer loop
      vertex 0 22.5 1.8
      vertex -13 26.5 1.8
      vertex -13 11.5 1.8
    endloop
  endfacet
  facet normal -0.2940858488375231 -0.95577900872195 0
    outer loop
      vertex 13 11.5 0
      vertex 0 15.5 1.8
      vertex 0 15.5 0
    endloop
  endfacet
  facet normal 0 0 -1
    outer loop
      vertex 0 15.5 0
      vertex 13 26.5 0
      vertex 13 11.5 0
    endloop
  endfacet
  facet normal 1 0 0
    outer loop
      vertex 13 26.5 0
      vertex 13 11.5 1.8
      vertex 13 11.5 0
    endloop
  endfacet
  facet normal -0.2940858488375231 -0.95577900872195 0
    outer loop
      vertex 13 11.5 0
      vertex 13 11.5 1.8
      vertex 0 15.5 1.8
    endloop
  endfacet
  facet normal 0 0 1
    outer loop
      vertex 13 11.5 1.8
      vertex 13 26.5 1.8
      vertex 0 15.5 1.8
    endloop
  endfacet
  facet normal 0 0 -1
    outer loop
      vertex 0 15.5 0
      vertex 0 22.5 0
      vertex 13 26.5 0
    endloop
  endfacet
  facet normal -0.2940858488375231 0.95577900872195 0
    outer loop
      vertex 0 22.5 0
      vertex 13 26.5 1.8
      vertex 13 26.5 0
    endloop
  endfacet
  facet normal -0.2940858488375231 0.95577900872195 0
    outer loop
      vertex 0 22.5 0
      vertex 0 22.5 1.8
      vertex 13 26.5 1.8
    endloop
  endfacet
  facet normal 0 0 1
    outer loop
      vertex 13 26.5 1.8
      vertex 0 22.5 1.8
      vertex 0 15.5 1.8
    endloop
  endfacet
  facet normal 1 0 0
    outer loop
      vertex 13 26.5 0
      vertex 13 26.5 1.8
      vertex 13 11.5 1.8
    endloop
  endfacet
  facet normal 0.2940858488375231 -0.95577900872195 0
    outer loop
      vertex 0 34.5 0
      vertex -13 30.5 1.8
      vertex -13 30.5 0
    endloop
  endfacet
  facet normal 0 0 -1
    outer loop
      vertex -13 30.5 0
      vertex -13 45.5 0
      vertex 0 41.5 0
    endloop
  endfacet
  facet normal -1 0 0
    outer loop
      vertex -13 30.5 0
      vertex -13 45.5 1.8
      vertex -13 45.5 0
    endloop
  endfacet
  facet normal 0 0 -1
    outer loop
      vertex 0 34.5 0
      vertex -13 30.5 0
      vertex 0 41.5 0
    endloop
  endfacet
  facet normal 0.2940858488375231 0.95577900872195 0
    outer loop
      vertex -13 45.5 0
      vertex 0 41.5 1.8
      vertex 0 41.5 0
    endloop
  endfacet
  facet normal -1 0 0
    outer loop
      vertex -13 30.5 0
      vertex -13 30.5 1.8
      vertex -13 45.5 1.8
    endloop
  endfacet
  facet normal 0.2940858488375231 0.95577900872195 0
    outer loop
      vertex -13 45.5 0
      vertex -13 45.5 1.8
      vertex 0 41.5 1.8
    endloop
  endfacet
  facet normal 0 0 1
    outer loop
      vertex 0 41.5 1.8
      vertex -13 45.5 1.8
      vertex -13 30.5 1.8
    endloop
  endfacet
  facet normal 0.2940858488375231 -0.95577900872195 0
    outer loop
      vertex 0 34.5 0
      vertex 0 34.5 1.8
      vertex -13 30.5 1.8
    endloop
  endfacet
  facet normal 0 0 1
    outer loop
      vertex 0 41.5 1.8
      vertex -13 30.5 1.8
      vertex 0 34.5 1.8
    endloop
  endfacet
  facet normal 0 0 -1
    outer loop
      vertex 0 34.5 0
      vertex 0 41.5 0
      vertex 13 45.5 0
    endloop
  endfacet
  facet normal -0.2940858488375231 -0.95577900872195 0
    outer loop
      vertex 13 30.5 0
      vertex 0 34.5 1.8
      vertex 0 34.5 0
    endloop
  endfacet
  facet normal 0 0 -1
    outer loop
      vertex 0 34.5 0
      vertex 13 45.5 0
      vertex 13 30.5 0
    endloop
  endfacet
  facet normal -0.2940858488375231 0.95577900872195 0
    outer loop
      vertex 0 41.5 0
      vertex 13 45.5 1.8
      vertex 13 45.5 0
    endloop
  endfacet
  facet normal 1 0 0
    outer loop
      vertex 13 45.5 0
      vertex 13 30.5 1.8
      vertex 13 30.5 0
    endloop
  endfacet
  facet normal -0.2940858488375231 0.95577900872195 0
    outer loop
      vertex 0 41.5 0
      vertex 0 41.5 1.8
      vertex 13 45.5 1.8
    endloop
  endfacet
  facet normal 0 0 1
    outer loop
      vertex 13 45.5 1.8
      vertex 0 41.5 1.8
      vertex 0 34.5 1.8
    endloop
  endfacet
  facet normal -0.2940858488375231 -0.95577900872195 0
    outer loop
      vertex 13 30.5 0
      vertex 13 30.5 1.8
      vertex 0 34.5 1.8
    endloop
  endfacet
  facet normal 1 0 0
    outer loop
      vertex 13 45.5 0
      vertex 13 45.5 1.8
      vertex 13 30.5 1.8
    endloop
  endfacet
  facet normal 0 0 1
    outer loop
      vertex 13 30.5 1.8
      vertex 13 45.5 1.8
      vertex 0 34.5 1.8
    endloop
  endfacet
endsolid OpenSCAD_Model
