solid OpenSCAD_Model
  facet normal 0 -0.7071067811865476 -0.7071067811865476
    outer loop
      vertex 0 6 -2
      vertex 2.8 0 4
      vertex 0 0 4
    endloop
  endfacet
  facet normal 0 -0.7071067811865476 -0.7071067811865476
    outer loop
      vertex 0 6 -2
      vertex 2.8 6 -2
      vertex 2.8 0 4
    endloop
  endfacet
  facet normal 0 0 -1
    outer loop
      vertex 2.8 -2.7999999970197678 4
      vertex 0 -2.7999999970197678 4
      vertex 0 0 4
    endloop
  endfacet
  facet normal 0 1 0
    outer loop
      vertex 0 6 17
      vertex 2.8 6 -2
      vertex 0 6 -2
    endloop
  endfacet
  facet normal -1 0 0
    outer loop
      vertex 0 6 17
      vertex 0 6 -2
      vertex 0 0 4
    endloop
  endfacet
  facet normal 1 0 0
    outer loop
      vertex 2.8 6 17
      vertex 2.8 0 4
      vertex 2.8 6 -2
    endloop
  endfacet
  facet normal -1 0 0
    outer loop
      vertex 0 6 17
      vertex 0 0 4
      vertex 0 0 11
    endloop
  endfacet
  facet normal 0 1 0
    outer loop
      vertex 0 6 17
      vertex 2.8 6 17
      vertex 2.8 6 -2
    endloop
  endfacet
  facet normal 0 -0.7071067811865476 0.7071067811865476
    outer loop
      vertex 0 6 17
      vertex 0 0 11
      vertex 2.8 6 17
    endloop
  endfacet
  facet normal 0 -0.7071067811865476 0.7071067811865476
    outer loop
      vertex 2.8 6 17
      vertex 0 0 11
      vertex 2.8 0 11
    endloop
  endfacet
  facet normal 1 0 0
    outer loop
      vertex 2.8 6 17
      vertex 2.8 0 11
      vertex 2.8 0 4
    endloop
  endfacet
  facet normal 0 -0.7071067811865476 -0.7071067811865476
    outer loop
      vertex 0 33 -2
      vertex 2.8 27 4
      vertex 0 27 4
    endloop
  endfacet
  facet normal 0 -0.7071067811865476 -0.7071067811865476
    outer loop
      vertex 0 33 -2
      vertex 2.8 33 -2
      vertex 2.8 27 4
    endloop
  endfacet
  facet normal 0 0 -1
    outer loop
      vertex 2.8 24.200000002980232 4
      vertex 0 24.200000002980232 4
      vertex 0 27 4
    endloop
  endfacet
  facet normal 0 1 0
    outer loop
      vertex 0 33 17
      vertex 2.8 33 -2
      vertex 0 33 -2
    endloop
  endfacet
  facet normal -1 0 0
    outer loop
      vertex 0 33 17
      vertex 0 33 -2
      vertex 0 27 4
    endloop
  endfacet
  facet normal 1 0 0
    outer loop
      vertex 2.8 33 17
      vertex 2.8 27 4
      vertex 2.8 33 -2
    endloop
  endfacet
  facet normal -1 0 0
    outer loop
      vertex 0 33 17
      vertex 0 27 4
      vertex 0 27 11
    endloop
  endfacet
  facet normal 0 1 0
    outer loop
      vertex 0 33 17
      vertex 2.8 33 17
      vertex 2.8 33 -2
    endloop
  endfacet
  facet normal 0 -0.7071067811865476 0.7071067811865476
    outer loop
      vertex 0 33 17
      vertex 0 27 11
      vertex 2.8 33 17
    endloop
  endfacet
  facet normal 0 -0.7071067811865476 0.7071067811865476
    outer loop
      vertex 2.8 33 17
      vertex 0 27 11
      vertex 2.8 27 11
    endloop
  endfacet
  facet normal 1 0 0
    outer loop
      vertex 2.8 33 17
      vertex 2.8 27 11
      vertex 2.8 27 4
    endloop
  endfacet
  facet normal 0 0 -1
    outer loop
      vertex 0 -2.8 4
      vertex 0 -2.7999999970197678 4
      vertex 2.8 -2.7999999970197678 4
    endloop
  endfacet
  facet normal -1 0 0
    outer loop
      vertex 0 -2.8 11
      vertex 0 -2.7999999970197678 4
      vertex 0 -2.8 4
    endloop
  endfacet
  facet normal 0 -1 0
    outer loop
      vertex 0 -2.8 11
      vertex 0 -2.8 4
      vertex 5 -2.8 4
    endloop
  endfacet
  facet normal -1 0 0
    outer loop
      vertex 0 -2.8 11
      vertex 0 0 4
      vertex 0 -2.7999999970197678 4
    endloop
  endfacet
  facet normal 0 0 -1
    outer loop
      vertex 2.8 -2.7999999970197678 4
      vertex 0 0 4
      vertex 2.8 0 4
    endloop
  endfacet
  facet normal 0 0 -1
    outer loop
      vertex 0 -2.8 4
      vertex 2.8 -2.7999999970197678 4
      vertex 5 -2.8 4
    endloop
  endfacet
  facet normal 0 0 -1
    outer loop
      vertex 2.8 -2.7999999970197678 4
      vertex 2.8 0 4
      vertex 5 0 4
    endloop
  endfacet
  facet normal -1 0 0
    outer loop
      vertex 0 -2.8 11
      vertex 0 0 11
      vertex 0 0 4
    endloop
  endfacet
  facet normal 0 0 1
    outer loop
      vertex 0 -2.8 11
      vertex 2.8 0 11
      vertex 0 0 11
    endloop
  endfacet
  facet normal 0 -1 0
    outer loop
      vertex 0 -2.8 11
      vertex 5 -2.8 4
      vertex 5 -2.8 11
    endloop
  endfacet
  facet normal 0 0 1
    outer loop
      vertex 0 -2.8 11
      vertex 5 -2.8 11
      vertex 2.8 0 11
    endloop
  endfacet
  facet normal 0 1 0
    outer loop
      vertex 5 0 11
      vertex 2.8 0 4
      vertex 2.8 0 11
    endloop
  endfacet
  facet normal 0 0 -1
    outer loop
      vertex 2.8 -2.7999999970197678 4
      vertex 5 0 4
      vertex 5 -2.8 4
    endloop
  endfacet
  facet normal 0 1 0
    outer loop
      vertex 2.8 0 4
      vertex 7.8 0 11
      vertex 5 0 4
    endloop
  endfacet
  facet normal 0 1 0
    outer loop
      vertex 7.8 0 11
      vertex 7.8 0 4
      vertex 5 0 4
    endloop
  endfacet
  facet normal 0 0 1
    outer loop
      vertex 2.8 0 11
      vertex 5 -2.8 11
      vertex 5 0 11
    endloop
  endfacet
  facet normal 0 1 0
    outer loop
      vertex 5 0 11
      vertex 7.8 0 11
      vertex 2.8 0 4
    endloop
  endfacet
  facet normal 0 0 -1
    outer loop
      vertex 0 24.2 4
      vertex 0 24.200000002980232 4
      vertex 2.8 24.200000002980232 4
    endloop
  endfacet
  facet normal -1 0 0
    outer loop
      vertex 0 24.2 11
      vertex 0 24.200000002980232 4
      vertex 0 24.2 4
    endloop
  endfacet
  facet normal -1 0 0
    outer loop
      vertex 0 24.2 11
      vertex 0 27 4
      vertex 0 24.200000002980232 4
    endloop
  endfacet
  facet normal 0 0 -1
    outer loop
      vertex 2.8 24.200000002980232 4
      vertex 0 27 4
      vertex 2.8 27 4
    endloop
  endfacet
  facet normal 0 -1 0
    outer loop
      vertex 0 24.2 11
      vertex 0 24.2 4
      vertex 5 24.2 4
    endloop
  endfacet
  facet normal 0 0 -1
    outer loop
      vertex 0 24.2 4
      vertex 2.8 24.200000002980232 4
      vertex 5 24.2 4
    endloop
  endfacet
  facet normal 0 0 -1
    outer loop
      vertex 2.8 24.200000002980232 4
      vertex 2.8 27 4
      vertex 5 27 4
    endloop
  endfacet
  facet normal -1 0 0
    outer loop
      vertex 0 24.2 11
      vertex 0 27 11
      vertex 0 27 4
    endloop
  endfacet
  facet normal 0 0 1
    outer loop
      vertex 0 24.2 11
      vertex 2.8 27 11
      vertex 0 27 11
    endloop
  endfacet
  facet normal 0 0 1
    outer loop
      vertex 0 24.2 11
      vertex 5 24.2 11
      vertex 2.8 27 11
    endloop
  endfacet
  facet normal 0 -1 0
    outer loop
      vertex 0 24.2 11
      vertex 5 24.2 4
      vertex 5 24.2 11
    endloop
  endfacet
  facet normal 0 1 0
    outer loop
      vertex 5 27 11
      vertex 2.8 27 4
      vertex 2.8 27 11
    endloop
  endfacet
  facet normal 0 0 -1
    outer loop
      vertex 2.8 24.200000002980232 4
      vertex 5 27 4
      vertex 5 24.2 4
    endloop
  endfacet
  facet normal 0 1 0
    outer loop
      vertex 2.8 27 4
      vertex 7.8 27 11
      vertex 5 27 4
    endloop
  endfacet
  facet normal 0 1 0
    outer loop
      vertex 7.8 27 11
      vertex 7.8 27 4
      vertex 5 27 4
    endloop
  endfacet
  facet normal 0 0 1
    outer loop
      vertex 2.8 27 11
      vertex 5 24.2 11
      vertex 5 27 11
    endloop
  endfacet
  facet normal 0 1 0
    outer loop
      vertex 5 27 11
      vertex 7.8 27 11
      vertex 2.8 27 4
    endloop
  endfacet
  facet normal -1 0 0
    outer loop
      vertex 5 -14 0
      vertex 5 -2.8 4
      vertex 5 0 4
    endloop
  endfacet
  facet normal -1 0 0
    outer loop
      vertex 5 -14 15
      vertex 5 -2.8 4
      vertex 5 -14 0
    endloop
  endfacet
  facet normal 0 0.27472112789737807 -0.9615239476408232
    outer loop
      vertex 5 -14 0
      vertex 5 0 4
      vertex 7.8 -14 0
    endloop
  endfacet
  facet normal 0 0.27472112789737807 -0.9615239476408232
    outer loop
      vertex 7.8 -14 0
      vertex 5 0 4
      vertex 7.8 0 4
    endloop
  endfacet
  facet normal 0 -1 0
    outer loop
      vertex 7.8 -14 15
      vertex 5 -14 0
      vertex 7.8 -14 0
    endloop
  endfacet
  facet normal 1 0 0
    outer loop
      vertex 7.8 -14 0
      vertex 7.8 0 4
      vertex 7.8 0 11
    endloop
  endfacet
  facet normal -1 0 0
    outer loop
      vertex 5 -14 15
      vertex 5 -2.8 11
      vertex 5 -2.8 4
    endloop
  endfacet
  facet normal -1 0 0
    outer loop
      vertex 5 -14 15
      vertex 5 0 11
      vertex 5 -2.8 11
    endloop
  endfacet
  facet normal 0 -1 0
    outer loop
      vertex 5 -14 15
      vertex 5 -14 0
      vertex 7.8 -14 15
    endloop
  endfacet
  facet normal 1 0 0
    outer loop
      vertex 7.8 -14 15
      vertex 7.8 -14 0
      vertex 7.8 0 11
    endloop
  endfacet
  facet normal 0 0.27472112789737807 0.9615239476408232
    outer loop
      vertex 5 -14 15
      vertex 7.8 0 11
      vertex 5 0 11
    endloop
  endfacet
  facet normal 0 0.27472112789737807 0.9615239476408232
    outer loop
      vertex 5 -14 15
      vertex 7.8 -14 15
      vertex 7.8 0 11
    endloop
  endfacet
  facet normal -1 0 0
    outer loop
      vertex 5 13 15
      vertex 5 24.2 4
      vertex 5 13 0
    endloop
  endfacet
  facet normal -1 0 0
    outer loop
      vertex 5 13 0
      vertex 5 24.2 4
      vertex 5 27 4
    endloop
  endfacet
  facet normal 0 0.27472112789737807 -0.9615239476408232
    outer loop
      vertex 5 13 0
      vertex 5 27 4
      vertex 7.8 13 0
    endloop
  endfacet
  facet normal 0 -1 0
    outer loop
      vertex 7.8 13 15
      vertex 5 13 0
      vertex 7.8 13 0
    endloop
  endfacet
  facet normal 0 0.27472112789737807 -0.9615239476408232
    outer loop
      vertex 7.8 13 0
      vertex 5 27 4
      vertex 7.8 27 4
    endloop
  endfacet
  facet normal 1 0 0
    outer loop
      vertex 7.8 13 0
      vertex 7.8 27 4
      vertex 7.8 27 11
    endloop
  endfacet
  facet normal -1 0 0
    outer loop
      vertex 5 13 15
      vertex 5 24.2 11
      vertex 5 24.2 4
    endloop
  endfacet
  facet normal -1 0 0
    outer loop
      vertex 5 13 15
      vertex 5 27 11
      vertex 5 24.2 11
    endloop
  endfacet
  facet normal 0 -1 0
    outer loop
      vertex 5 13 15
      vertex 5 13 0
      vertex 7.8 13 15
    endloop
  endfacet
  facet normal 1 0 0
    outer loop
      vertex 7.8 13 15
      vertex 7.8 13 0
      vertex 7.8 27 11
    endloop
  endfacet
  facet normal 0 0.27472112789737807 0.9615239476408232
    outer loop
      vertex 5 13 15
      vertex 7.8 13 15
      vertex 7.8 27 11
    endloop
  endfacet
  facet normal 0 0.27472112789737807 0.9615239476408232
    outer loop
      vertex 5 13 15
      vertex 7.8 27 11
      vertex 5 27 11
    endloop
  endfacet
endsolid OpenSCAD_Model
